<mxfile host="app.diagrams.net" modified="2022-11-13T23:05:48.766Z" agent="5.0 (Windows NT 10.0; Win64; x64) AppleWebKit/537.36 (KHTML, like Gecko) Chrome/107.0.0.0 Safari/537.36" etag="5qhUSSOzWjMCWYus9y9p" version="20.5.3" type="github">
  <diagram id="tUtnEJGrudBuOTn9ZmEZ" name="PÃ¡gina-1">
    <mxGraphModel dx="868" dy="482" grid="1" gridSize="10" guides="1" tooltips="1" connect="1" arrows="1" fold="1" page="1" pageScale="1" pageWidth="827" pageHeight="1169" math="0" shadow="0">
      <root>
        <mxCell id="0" />
        <mxCell id="1" parent="0" />
        <mxCell id="mS-E4WLF95TZ4vqTJO7K-1" value="&lt;font style=&quot;font-size: 20px;&quot;&gt;&lt;b style=&quot;&quot;&gt;Model&lt;/b&gt;&lt;/font&gt;" style="rounded=1;whiteSpace=wrap;html=1;absoluteArcSize=1;arcSize=14;strokeWidth=2;fillColor=#dae8fc;strokeColor=#6c8ebf;" vertex="1" parent="1">
          <mxGeometry x="444" y="223" width="100" height="100" as="geometry" />
        </mxCell>
        <mxCell id="mS-E4WLF95TZ4vqTJO7K-4" value="Training&lt;br&gt;dataset" style="shape=parallelogram;html=1;strokeWidth=2;perimeter=parallelogramPerimeter;whiteSpace=wrap;rounded=1;arcSize=12;size=0.23;fontSize=20;fontColor=#000000;" vertex="1" parent="1">
          <mxGeometry x="220" y="233" width="124" height="75" as="geometry" />
        </mxCell>
        <mxCell id="mS-E4WLF95TZ4vqTJO7K-6" value="Prediction" style="shape=parallelogram;html=1;strokeWidth=2;perimeter=parallelogramPerimeter;whiteSpace=wrap;rounded=1;arcSize=12;size=0.23;fontSize=20;fontColor=#000000;" vertex="1" parent="1">
          <mxGeometry x="627" y="237" width="140" height="70" as="geometry" />
        </mxCell>
        <mxCell id="mS-E4WLF95TZ4vqTJO7K-7" value="Loss function" style="rounded=1;whiteSpace=wrap;html=1;absoluteArcSize=1;arcSize=14;strokeWidth=2;fontSize=20;fontColor=#000000;" vertex="1" parent="1">
          <mxGeometry x="444" y="20" width="100" height="50" as="geometry" />
        </mxCell>
        <mxCell id="mS-E4WLF95TZ4vqTJO7K-8" value="Optimization method" style="rounded=1;whiteSpace=wrap;html=1;absoluteArcSize=1;arcSize=14;strokeWidth=2;fontSize=20;fontColor=#000000;" vertex="1" parent="1">
          <mxGeometry x="431" y="121" width="126" height="50" as="geometry" />
        </mxCell>
        <mxCell id="mS-E4WLF95TZ4vqTJO7K-12" value="" style="html=1;shadow=0;dashed=0;align=center;verticalAlign=middle;shape=mxgraph.arrows2.arrow;dy=0.6;dx=27;direction=south;notch=0;fontSize=20;fontColor=#000000;" vertex="1" parent="1">
          <mxGeometry x="474" y="171" width="40" height="51" as="geometry" />
        </mxCell>
        <mxCell id="mS-E4WLF95TZ4vqTJO7K-19" value="" style="html=1;shadow=0;dashed=0;align=center;verticalAlign=middle;shape=mxgraph.arrows2.arrow;dy=0.6;dx=27;direction=south;notch=0;fontSize=20;fontColor=#000000;" vertex="1" parent="1">
          <mxGeometry x="474" y="71" width="40" height="51" as="geometry" />
        </mxCell>
        <mxCell id="mS-E4WLF95TZ4vqTJO7K-14" value="" style="html=1;shadow=0;dashed=0;align=center;verticalAlign=middle;shape=mxgraph.arrows2.bendArrow;dy=15;dx=38;notch=0;arrowHead=55;rounded=1;fontSize=20;fontColor=#000000;rotation=90;direction=south;dropTarget=0;snapToPoint=0;portConstraint=none;flipH=1;" vertex="1" parent="1">
          <mxGeometry x="537.5" y="38.5" width="205" height="170" as="geometry" />
        </mxCell>
        <mxCell id="mS-E4WLF95TZ4vqTJO7K-22" value="" style="html=1;shadow=0;dashed=0;align=center;verticalAlign=middle;shape=mxgraph.arrows2.bendArrow;dy=15;dx=38;notch=0;arrowHead=55;rounded=1;fontSize=20;fontColor=#000000;" vertex="1" parent="1">
          <mxGeometry x="280" y="21" width="150" height="200" as="geometry" />
        </mxCell>
        <mxCell id="mS-E4WLF95TZ4vqTJO7K-23" value="Testing&lt;br&gt;dataset" style="shape=parallelogram;html=1;strokeWidth=2;perimeter=parallelogramPerimeter;whiteSpace=wrap;rounded=1;arcSize=12;size=0.23;fontSize=20;fontColor=#000000;" vertex="1" parent="1">
          <mxGeometry x="217.5" y="351.5" width="129" height="68.5" as="geometry" />
        </mxCell>
        <mxCell id="mS-E4WLF95TZ4vqTJO7K-24" value="&lt;span style=&quot;font-size: 20px;&quot;&gt;Optimized model&lt;/span&gt;" style="whiteSpace=wrap;html=1;fillColor=#dae8fc;strokeColor=#6c8ebf;rounded=1;arcSize=14;strokeWidth=2;" vertex="1" parent="1">
          <mxGeometry x="432" y="361" width="120" height="60" as="geometry" />
        </mxCell>
        <mxCell id="mS-E4WLF95TZ4vqTJO7K-26" value="" style="html=1;shadow=0;dashed=0;align=center;verticalAlign=middle;shape=mxgraph.arrows2.arrow;dy=0.6;dx=27;direction=south;notch=0;fontSize=20;fontColor=#000000;" vertex="1" parent="1">
          <mxGeometry x="474" y="321" width="36" height="40" as="geometry" />
        </mxCell>
        <mxCell id="mS-E4WLF95TZ4vqTJO7K-28" value="" style="html=1;shadow=0;dashed=0;align=center;verticalAlign=middle;shape=mxgraph.arrows2.arrow;dy=0.62;dx=35;notch=0;fontSize=20;fontColor=#000000;" vertex="1" parent="1">
          <mxGeometry x="350" y="363.5" width="81" height="55" as="geometry" />
        </mxCell>
        <mxCell id="mS-E4WLF95TZ4vqTJO7K-29" value="" style="html=1;shadow=0;dashed=0;align=center;verticalAlign=middle;shape=mxgraph.arrows2.arrow;dy=0.62;dx=35;notch=0;fontSize=20;fontColor=#000000;" vertex="1" parent="1">
          <mxGeometry x="560" y="361" width="70" height="55" as="geometry" />
        </mxCell>
        <mxCell id="mS-E4WLF95TZ4vqTJO7K-30" value="Prediction" style="shape=parallelogram;html=1;strokeWidth=2;perimeter=parallelogramPerimeter;whiteSpace=wrap;rounded=1;arcSize=12;size=0.23;fontSize=20;fontColor=#000000;" vertex="1" parent="1">
          <mxGeometry x="620" y="351" width="140" height="70" as="geometry" />
        </mxCell>
        <mxCell id="mS-E4WLF95TZ4vqTJO7K-31" value="" style="html=1;shadow=0;dashed=0;align=center;verticalAlign=middle;shape=mxgraph.arrows2.arrow;dy=0.6;dx=40;notch=0;fontSize=20;fontColor=#000000;" vertex="1" parent="1">
          <mxGeometry x="354" y="235.5" width="84" height="70" as="geometry" />
        </mxCell>
        <mxCell id="mS-E4WLF95TZ4vqTJO7K-32" value="" style="html=1;shadow=0;dashed=0;align=center;verticalAlign=middle;shape=mxgraph.arrows2.arrow;dy=0.6;dx=40;notch=0;fontSize=20;fontColor=#000000;" vertex="1" parent="1">
          <mxGeometry x="552" y="231" width="78" height="72" as="geometry" />
        </mxCell>
        <mxCell id="mS-E4WLF95TZ4vqTJO7K-33" value="Dataset" style="strokeWidth=2;html=1;shape=mxgraph.flowchart.database;whiteSpace=wrap;fontSize=20;fontColor=#000000;" vertex="1" parent="1">
          <mxGeometry x="40" y="231" width="100" height="196" as="geometry" />
        </mxCell>
        <mxCell id="mS-E4WLF95TZ4vqTJO7K-34" value="" style="html=1;shadow=0;dashed=0;align=center;verticalAlign=middle;shape=mxgraph.arrows2.arrow;dy=0.6;dx=40;notch=0;fontSize=20;fontColor=#000000;" vertex="1" parent="1">
          <mxGeometry x="150" y="240" width="70" height="68" as="geometry" />
        </mxCell>
        <mxCell id="mS-E4WLF95TZ4vqTJO7K-35" value="" style="html=1;shadow=0;dashed=0;align=center;verticalAlign=middle;shape=mxgraph.arrows2.arrow;dy=0.6;dx=40;notch=0;fontSize=20;fontColor=#000000;" vertex="1" parent="1">
          <mxGeometry x="150" y="340" width="70" height="68" as="geometry" />
        </mxCell>
      </root>
    </mxGraphModel>
  </diagram>
</mxfile>
